<svg xmlns="http://www.w3.org/2000/svg" xmlns:xlink="http://www.w3.org/1999/xlink" viewBox="0 0 357.5 367.15"><defs><style>.cls-1{isolation:isolate;}.cls-2{fill:#112b46;}.cls-3{fill:url(#linear-gradient);}.cls-4{fill:url(#linear-gradient-2);}.cls-5{fill:url(#linear-gradient-3);}.cls-6,.cls-8{fill:#e6e7e8;}.cls-6,.cls-7{mix-blend-mode:multiply;}.cls-9{fill:#bee1f4;}.cls-10{fill:#7aabbc;}.cls-11{fill:#0a2033;}.cls-12,.cls-33{fill:#f9fbfc;}.cls-13{fill:#fbd15b;}.cls-14{fill:#ff8578;}.cls-15{fill:#1d262d;}.cls-16{fill:url(#radial-gradient);}.cls-17{fill:#efa78b;}.cls-18{fill:#ffc8af;}.cls-19{fill:url(#linear-gradient-4);}.cls-20{fill:#243c55;}.cls-21{fill:url(#linear-gradient-5);}.cls-22{fill:url(#linear-gradient-6);}.cls-23{fill:url(#linear-gradient-7);}.cls-24{fill:#3030ef;}.cls-25{fill:url(#radial-gradient-2);}.cls-26{fill:url(#radial-gradient-3);}.cls-27{fill:url(#linear-gradient-8);}.cls-28{fill:url(#linear-gradient-9);}.cls-29{fill:url(#linear-gradient-10);}.cls-30{fill:url(#linear-gradient-11);}.cls-31{fill:url(#linear-gradient-12);}.cls-32{fill:#bc8867;}.cls-33{font-size:16.14px;}.cls-33,.cls-35{font-family:FiraSans-Medium, Fira Sans;font-weight:500;}.cls-34{fill:#878cf0;}.cls-35{font-size:19.25px;fill:#f1f2f2;}</style><linearGradient id="linear-gradient" x1="76.2" y1="276.4" x2="76.2" y2="322.73" gradientUnits="userSpaceOnUse"><stop offset="0" stop-color="#7978e0"/><stop offset="1" stop-color="#563fda"/></linearGradient><linearGradient id="linear-gradient-2" x1="23.76" y1="305.84" x2="23.76" y2="328.93" xlink:href="#linear-gradient"/><linearGradient id="linear-gradient-3" x1="38.04" y1="267.11" x2="38.04" y2="319.52" xlink:href="#linear-gradient"/><radialGradient id="radial-gradient" cx="152.82" cy="90.4" r="33.96" gradientUnits="userSpaceOnUse"><stop offset="0" stop-color="#ffc8af"/><stop offset="1" stop-color="#ffbb9c"/></radialGradient><linearGradient id="linear-gradient-4" x1="266.69" y1="337.89" x2="280.95" y2="362.59" xlink:href="#linear-gradient"/><linearGradient id="linear-gradient-5" x1="200.87" y1="339.03" x2="218.34" y2="369.29" xlink:href="#linear-gradient"/><linearGradient id="linear-gradient-6" x1="123.06" y1="150.06" x2="163.38" y2="150.06" gradientUnits="userSpaceOnUse"><stop offset="0" stop-color="#606bf1"/><stop offset="1" stop-color="#433aff"/></linearGradient><linearGradient id="linear-gradient-7" x1="89.81" y1="124.07" x2="148.79" y2="226.24" xlink:href="#linear-gradient-6"/><radialGradient id="radial-gradient-2" cx="187.24" cy="179.4" r="42.99" xlink:href="#radial-gradient"/><radialGradient id="radial-gradient-3" cx="152.82" cy="90.4" r="33.95" xlink:href="#radial-gradient"/><linearGradient id="linear-gradient-8" x1="134.9" y1="111.64" x2="134.9" y2="177.84" xlink:href="#linear-gradient-6"/><linearGradient id="linear-gradient-9" x1="161.54" y1="54.88" x2="161.54" y2="91.51" gradientUnits="userSpaceOnUse"><stop offset="0" stop-color="#56549e"/><stop offset="0.99" stop-color="#2e2c71"/></linearGradient><linearGradient id="linear-gradient-10" x1="125.29" y1="237.73" x2="159.33" y2="296.68" gradientTransform="translate(284.62 534.41) rotate(180)" gradientUnits="userSpaceOnUse"><stop offset="0" stop-color="#ec827d"/><stop offset="1" stop-color="#ff5a7d"/></linearGradient><linearGradient id="linear-gradient-11" x1="128.5" y1="332.25" x2="155.34" y2="378.73" gradientTransform="translate(284.62 708.11) rotate(-180)" xlink:href="#linear-gradient-10"/><linearGradient id="linear-gradient-12" x1="65.18" y1="156.18" x2="87.61" y2="195.03" gradientTransform="matrix(1, 0, 0, 1, 0, 0)" xlink:href="#linear-gradient-10"/></defs><g class="cls-1"><g id="Layer_2" data-name="Layer 2"><g id="OBJECTS"><path class="cls-2" d="M61.8,318.3s-.68,2-1.4,4.57a45.93,45.93,0,0,0-1.65,7.7l1.22.09a44.21,44.21,0,0,1,1.6-7.46c.36-1.25.7-2.38,1-3.2s.43-1.31.43-1.31l-1.16-.39Z"/><path class="cls-2" d="M50.92,319.31l.06.57c.11,1.13.33,3.73.33,6.57,0,1.32-.05,2.7-.18,4l1.22.12c.13-1.35.18-2.76.18-4.11a70.83,70.83,0,0,0-.4-7.28l-1.21.14Z"/><path class="cls-2" d="M44.89,327.36h0a4.82,4.82,0,0,1,.52.76,3,3,0,0,1,.43,1.46h1.22a4.3,4.3,0,0,0-.64-2.15,6.18,6.18,0,0,0-.63-.9l-.9.83Z"/><path class="cls-3" d="M60.35,319.54s-6.24-7.91,3.35-24.35S93.07,274.8,94,276.93s-10,6.24-13.08,18.87-3.45,19.63-7.26,23.44S64.66,324.56,60.35,319.54Z"/><path class="cls-4" d="M47.51,321.13s-.69-8.9-16.8-13.85S-.66,311.62,0,313.56s10.29-2,19.85,4.44,14,10.72,18.8,10.91S47.71,327,47.51,321.13Z"/><path class="cls-5" d="M57.2,315.3s10.74-11.54-1.72-30-39.94-19.75-40.84-17.19S25.39,275.5,29.92,290s7,21.8,11.73,26S52.55,321.5,57.2,315.3Z"/><path class="cls-6" d="M62.89,317.1l-.16,0a.61.61,0,0,1-.43-.75c.28-1,7-24.72,19.32-33.78a.61.61,0,1,1,.72,1c-12,8.81-18.8,32.88-18.87,33.12A.61.61,0,0,1,62.89,317.1Z"/><path class="cls-6" d="M50.44,314.09a.68.68,0,0,1-.61-.45,2.9,2.9,0,0,1-.07-.66c-.56-8.34-4.11-36-26.44-41.86a.61.61,0,0,1-.44-.74.62.62,0,0,1,.75-.44C46.74,276,50.4,304.35,51,312.9c0,.23,0,.38,0,.44a.58.58,0,0,1-.4.73Z"/><g class="cls-7"><path class="cls-8" d="M42.92,325.18c-.28,0-.55-.25-1.44-1.05-10-9.07-19.66-13.36-28.69-12.77a.61.61,0,0,1-.65-.57.63.63,0,0,1,.57-.65c9.38-.62,19.32,3.79,29.59,13.08.36.33.72.66.87.77a.6.6,0,0,1,0,1.14A.63.63,0,0,1,42.92,325.18Z"/></g><path class="cls-9" d="M67.83,366.41H36.44a1.68,1.68,0,0,1-1.65-1.31l-8.22-35.52H77.7L69.48,365.1A1.69,1.69,0,0,1,67.83,366.41Z"/><polygon class="cls-10" points="28.96 339.92 75.31 339.92 77.7 329.58 26.57 329.58 28.96 339.92"/><polygon class="cls-9" points="27.05 331.68 77.22 331.68 77.7 329.58 26.57 329.58 27.05 331.68"/><rect class="cls-11" x="185.61" y="39.51" width="143.44" height="78.09"/><path class="cls-12" d="M192,43.74a1.52,1.52,0,1,1-1.52-1.52A1.52,1.52,0,0,1,192,43.74Z"/><path class="cls-13" d="M198.28,43.74a1.52,1.52,0,1,1-1.51-1.52A1.52,1.52,0,0,1,198.28,43.74Z"/><path class="cls-14" d="M204.15,43.9a1.52,1.52,0,1,1-1.51-1.52A1.52,1.52,0,0,1,204.15,43.9Z"/><rect class="cls-13" x="200.48" y="55.45" width="78.92" height="1"/><rect class="cls-13" x="204.15" y="60.82" width="112.04" height="1"/><rect class="cls-13" x="210.53" y="66.18" width="86.54" height="1"/><rect class="cls-13" x="216.79" y="71.55" width="90.36" height="1"/><rect class="cls-13" x="225.29" y="76.91" width="61.04" height="1"/><rect class="cls-14" x="200.48" y="104.75" width="35.54" height="1"/><rect class="cls-14" x="204.15" y="99.38" width="86.54" height="1"/><rect class="cls-14" x="210.53" y="94.02" width="112.04" height="1"/><rect class="cls-14" x="216.79" y="88.65" width="61.04" height="1"/><rect class="cls-14" x="225.29" y="83.29" width="73.79" height="1"/><rect class="cls-12" x="192.73" y="54.49" width="1.27" height="1.27"/><path class="cls-12" d="M194,101.27h-1.27v-2.6H194Zm0-6.5h-1.27v-2.6H194Zm0-6.5h-1.27v-2.6H194Zm0-6.5h-1.27v-2.6H194Zm0-6.5h-1.27v-2.6H194Zm0-6.5h-1.27v-2.6H194Zm0-6.5h-1.27v-2.6H194Z"/><rect class="cls-12" x="192.73" y="105.18" width="1.27" height="1.28"/><polygon class="cls-15" points="286.19 205.72 217.52 205.72 217.52 201.82 283.87 201.82 315.82 143.45 319.24 145.32 286.19 205.72"/><path class="cls-16" d="M176.25,81.77a33.19,33.19,0,0,1-4.57,11.71c-3.66,5.65-11.91,14-14.19,14.66-.92.28-4.19-1.2-7.76-3.07-1.17-.61-2.37-1.27-3.54-1.91-4.11-2.28-7.73-4.48-7.73-4.48L133,91a63,63,0,0,1,12.21-27.42c6.05-7.92,19.57-3.16,24.49.64S177.32,74,176.25,81.77Z"/><path class="cls-17" d="M145.94,82.7c-.16,5,3.13,6.85,3.78,7.7S146,95.84,144,93.77,145.94,82.7,145.94,82.7Z"/><polygon class="cls-18" points="269.29 333.35 271.73 345.07 255.65 347.84 251.94 334.42 269.29 333.35"/><path class="cls-12" d="M302.57,350.48l1.05,5.87-51,9.1-1-5.81s45.23-8.59,50.15-9Z"/><path class="cls-19" d="M280.89,343.57a.73.73,0,0,0,.15-.4l3.16,1.22-3.6,5a.89.89,0,0,0,.2,1.24.87.87,0,0,0,1.22-.2l3.74-5.17a.42.42,0,0,0,.1-.25c6.85,2.59,14,5.23,15.85,5.59-4.92.45-50.15,9-50.15,9l1.61-13.5a1,1,0,0,1,1.19-.84c12,2.34,16.13-2.87,17.27-4.89a1,1,0,0,1,1.21-.43l2.2.86-3.57,4.93a.88.88,0,0,0,.21,1.23.92.92,0,0,0,.67.17,1,1,0,0,0,.57-.37l3.72-5.17a.22.22,0,0,0,.06-.14l2.75,1.06-3.72,5.17a.89.89,0,0,0,.87,1.39.83.83,0,0,0,.55-.37Z"/><path class="cls-12" d="M282,350.43a.87.87,0,0,1-1.22.2.89.89,0,0,1-.2-1.24l3.6-5,1.66.62a.42.42,0,0,1-.1.25Z"/><path class="cls-12" d="M279.45,342.55l1.59.62a.73.73,0,0,1-.15.4l-3.74,5.17a.83.83,0,0,1-.55.37.89.89,0,0,1-.87-1.39Z"/><path class="cls-12" d="M272.92,346.8a1,1,0,0,1-.57.37.92.92,0,0,1-.67-.17.88.88,0,0,1-.21-1.23l3.57-4.93,1.66.65a.22.22,0,0,1-.06.14Z"/><path class="cls-20" d="M181.94,258c-10.45.53-24.41,1.27-42.64,2-51,1.95-40.62-47.44-40.62-47.44l48.75-.64s72.47-1.08,87.74,8.67,37.54,112.63,37.54,112.63l-24.28,6.78s-19.67-42.29-31.16-64.81c-4.72-9.26-8.13-16.07-8.42-16.81C208.23,256.64,200.76,257,181.94,258Z"/><path class="cls-11" d="M149,211.82l-1.55,0-48.75.64s-5.82,27.7,12.68,40.79c18.41-4.45,29.38-23.14,39.05-39.9Z"/><path class="cls-11" d="M217.27,275.11l-4,61-4.39.1V333.7H191.46v3l-4.8.12L181.94,258c18.82-1,26.29-1.31,26.91.35C209.14,259,212.55,265.85,217.27,275.11Z"/><polygon class="cls-18" points="208.85 336.24 208.85 347.35 191.46 347.35 191.46 336.67 208.85 336.24"/><polygon class="cls-11" points="208.85 333.7 208.85 336.24 191.46 336.67 191.46 333.7 208.85 333.7"/><path class="cls-12" d="M238.34,358.28v6H186.51v-5.9s46-.52,51-.09Z"/><path class="cls-21" d="M218.21,347.67a.73.73,0,0,0,.21-.37l2.91,1.75-4.43,4.29a.91.91,0,0,0,0,1.26.93.93,0,0,0,.64.26.87.87,0,0,0,.6-.25l4.59-4.43a.4.4,0,0,0,.14-.23c6.29,3.76,12.9,7.62,14.62,8.3-4.92-.43-51,.09-51,.09l4-13a1,1,0,0,1,1.32-.62c11.38,4.41,16.39,0,17.86-1.78a1,1,0,0,1,1.26-.21l2,1.23-4.37,4.23a.86.86,0,0,0,0,1.24.93.93,0,0,0,.64.29.89.89,0,0,0,.62-.27l4.57-4.43a.38.38,0,0,0,.09-.12l2.51,1.52-4.57,4.43a.86.86,0,0,0,0,1.24.85.85,0,0,0,.64.28.8.8,0,0,0,.6-.26Z"/><path class="cls-12" d="M218.12,354.61a.87.87,0,0,1-.6.25.93.93,0,0,1-.64-.26.91.91,0,0,1,0-1.26l4.43-4.29,1.52.9a.4.4,0,0,1-.14.23Z"/><path class="cls-12" d="M217,346.41l1.45.89a.73.73,0,0,1-.21.37l-4.59,4.43a.8.8,0,0,1-.6.26.85.85,0,0,1-.64-.28.86.86,0,0,1,0-1.24Z"/><path class="cls-12" d="M209.8,349.44a.89.89,0,0,1-.62.27.93.93,0,0,1-.64-.29.86.86,0,0,1,0-1.24l4.37-4.23,1.53.94a.38.38,0,0,1-.09.12Z"/><path class="cls-17" d="M237.12,198.19H208.36s-43.38-7-51.82-12.19c-3.14-1.93-8.53-7.84-14.08-14.51l19.59-16.32c3.43,5.44,6.55,9.87,7.8,10.36,3.41,1.28,35.74,19.32,39.49,19.32S230.94,184.54,237.12,198.19Z"/><path class="cls-22" d="M163.38,154.76l-20.92,16.73c-9.48-11.36-19.4-25-19.4-25l29.67-17.9S160.34,146.72,163.38,154.76Z"/><path class="cls-23" d="M145.48,113.68,124,105.24s-25.58,3-27.34,64.6c-.34,11.89-.23,77.65,3.4,79.33,14.45,6.73,51.67-37.37,51.67-37.37.74-1.37-.31-15.58,0-17a14.87,14.87,0,0,1-2.22-1c-3.81-2.24-10.9-11.66-17.88-21.84l22.07-17.2c.87,1.39,1.75,2.73,2.59,4C156.91,125.93,145.48,113.68,145.48,113.68Z"/><path class="cls-24" d="M151.76,194.81a14.87,14.87,0,0,1-2.22-1c-3.81-2.24-10.9-11.66-17.88-21.84l10.83-8.44-10.83-16.06-19.53-12.77v8.8s8.36,22.74,18.31,40.57c5.4,9.68,14.34,14.44,21.39,16.76A54.3,54.3,0,0,1,151.76,194.81Z"/><path class="cls-25" d="M214.7,191.36s-45.34-18.52-48.42-19.19c-1-.21-4.31-4.81-8.41-11-.86-1.34-3.27-5-4.14-6.39L131.66,172c7,10.18,14.07,19.6,17.88,21.84a14.87,14.87,0,0,0,2.22,1l0-.13,0,.13c13.18,4.93,60.61,7.21,61.53,7.52,1.71,1.32,5.71,1.4,9.31.41a13.47,13.47,0,0,0,4.48-2.06c3.17-2.38,7.9,1,10,2.59,1.39,1,4.63,1,5.7-.06C240.38,189.56,214.7,191.36,214.7,191.36Z"/><polygon class="cls-26" points="150.37 103.77 149.73 105.07 148.35 107.86 148.1 108.37 145.48 113.68 124.03 105.24 133.01 90.99 147.23 101.46 150.37 103.77"/><path class="cls-27" d="M112.13,143.49l22.36,34.35,25.57-14.67s-7-26.78-13.72-41.51c-4.2-9.15-16.28-13.69-28-6.41C108.08,121.66,108.39,136.64,112.13,143.49Z"/><path class="cls-28" d="M154.3,81.67c-.82-3.73-4.23-7.16-7.31-2.18a9.83,9.83,0,0,0-1.17,4.16c-.55,5.2-6.59,7.48-11.11,7.83a8.83,8.83,0,0,1-2.18-.08s1.15-8.55,3.68-18.86S144.49,51.73,152.79,56c0,0,7.63-3.56,12.28,2.35,0,0,7.88-2.83,12,3.51,0,0,11.07,2.09,13.14,9,2.62,8.74-9.61,10.87-13.7,8.39s-7.17-7.17-10-7.08-2.18,4.41-2.6,7.08-4.57-.07-6.33,3.51-2.64,5.6-3.69,5S154.3,81.67,154.3,81.67Z"/><path class="cls-17" d="M152.82,82.57c.32-1.34-.52-3.24-1.69-3.32-1.5-.1-2.19,1.73-2.3,3.34s.34,4,2,3.48c1.25-.43-.15-1.93.3-2.75S152.82,84,152.82,82.57Z"/><path class="cls-17" d="M149.73,105.07l-1.38,2.79a10.19,10.19,0,0,1-4.33-8.1S145.32,102.54,149.73,105.07Z"/><path class="cls-2" d="M68.68,154.83c0,.17,0,.24,0,.3s0,.26,0,.37c0,.39.15,1.07.31,2.12,1.16,7.78,5.32,34.44,9.2,59.18s7.47,47.54,7.47,47.54l7.7-1.21s-.27-1.69-.73-4.64c-1.62-10.34-5.69-36.19-9.34-59.56-1.83-11.69-3.56-22.76-4.83-31-.63-4.1-1.15-7.48-1.51-9.86-.18-1.19-.32-2.13-.42-2.77,0-.32-.08-.57-.1-.73l0-.15h0l-2.31.25,2.32-.2v-.05l-2.31.25,2.32-.2-3.61.31h3.62c0-.22,0-.26,0-.31l-3.61.31H68.68Z"/><path class="cls-11" d="M139.21,274.87h6.19a1.63,1.63,0,0,1,1.63,1.63v90.66a0,0,0,0,1,0,0h-9.44a0,0,0,0,1,0,0V276.49A1.63,1.63,0,0,1,139.21,274.87Z" transform="translate(284.62 642.02) rotate(180)"/><path class="cls-11" d="M139.21,344.49h6.19a1.63,1.63,0,0,1,1.63,1.63v21a0,0,0,0,1,0,0h-9.44a0,0,0,0,1,0,0v-21A1.63,1.63,0,0,1,139.21,344.49Z" transform="translate(284.62 711.64) rotate(180)"/><path class="cls-2" d="M122.68,276.16h39.26a6.34,6.34,0,0,1,6.34,6.34V284a0,0,0,0,1,0,0H116.34a0,0,0,0,1,0,0V282.5A6.34,6.34,0,0,1,122.68,276.16Z" transform="translate(284.62 560.21) rotate(180)"/><rect class="cls-29" x="84.76" y="258.01" width="115.09" height="18.4" rx="7.4" transform="translate(284.62 534.41) rotate(-180)"/><path class="cls-11" d="M93.3,361.62a5.53,5.53,0,1,0,5.52-5.52A5.52,5.52,0,0,0,93.3,361.62Z"/><circle class="cls-11" cx="185.79" cy="361.62" r="5.53"/><rect class="cls-2" x="132.81" y="337.45" width="19" height="16.6" transform="translate(284.62 691.5) rotate(180)"/><path class="cls-30" d="M93.3,350.15h98a0,0,0,0,1,0,0v2.06a5.75,5.75,0,0,1-5.75,5.75H99a5.75,5.75,0,0,1-5.75-5.75v-2.06A0,0,0,0,1,93.3,350.15Z" transform="translate(284.62 708.11) rotate(180)"/><path class="cls-31" d="M66.35,161.26l4.17,30.84A8,8,0,1,0,86.44,190l-4.16-30.84a8,8,0,0,0-15.93,2.15"/><rect class="cls-32" x="340.58" y="214.91" width="8.45" height="151.19"/><rect class="cls-32" x="213.29" y="214.91" width="8.45" height="151.19"/><rect class="cls-12" x="206.96" y="205.48" width="150.54" height="10.56"/><rect class="cls-14" x="159.95" width="43.53" height="26.83"/><text class="cls-33" transform="translate(169.29 18.37)">&lt;/&gt;</text><rect class="cls-13" x="81.04" y="31.83" width="49.11" height="32.85"/><path class="cls-12" d="M97.3,41.26A8.06,8.06,0,0,0,108.08,53l5.16,5.15a.56.56,0,0,0,.79,0l1.44-1.44a.56.56,0,0,0,0-.79l-5.15-5.16a8.06,8.06,0,0,0-13-9.48Zm10.34,9a5.7,5.7,0,1,1,0-8.06A5.69,5.69,0,0,1,107.64,50.3Z"/><rect class="cls-34" x="318.26" y="24.1" width="37.69" height="26.85"/><text class="cls-35" transform="translate(328.48 44.26)">{ }</text></g></g></g></svg>